<svg xmlns="http://www.w3.org/2000/svg" width="11.703" height="11.171" viewBox="0 0 11.703 11.171">
  <path id="np_phone_850923_000000" d="M6.894,8A.964.964,0,0,0,6,8.91a10.625,10.625,0,0,0,2.971,7.568,10.889,10.889,0,0,0,7.792,2.693.932.932,0,0,0,.923-.914c.006-.759.011-1.52.017-2.277a.916.916,0,0,0-.923-.877,11.367,11.367,0,0,1-2.4-.436.406.406,0,0,0-.374.1L12.737,16A8.146,8.146,0,0,1,9.57,12.928l1.259-1.218a.408.408,0,0,0,.108-.391,8.891,8.891,0,0,1-.495-2.5.966.966,0,0,0-1-.823H6.894Zm0,.8H9.462c.129,0,.129,0,.191.121A7.972,7.972,0,0,0,10.1,11.3L8.78,12.592a.412.412,0,0,0-.062.495,9.4,9.4,0,0,0,3.873,3.765.41.41,0,0,0,.478-.058l1.334-1.3a10.042,10.042,0,0,0,2.381.407c.057.011.114.092.121.1l-.017,2.253c-.028.065.017.123-.15.121A10.068,10.068,0,0,1,9.524,15.9,9.809,9.809,0,0,1,6.8,8.881c0-.081,0-.081.1-.083Z" transform="translate(-6 -8)" fill="#ff6c37"/>
</svg>
