<svg xmlns="http://www.w3.org/2000/svg" xmlns:xlink="http://www.w3.org/1999/xlink" width="13.077" height="13.135" viewBox="0 0 13.077 13.135">
  <defs>
    <clipPath id="clip-path">
      <rect id="Rectangle_1951" data-name="Rectangle 1951" width="13.077" height="13.135" fill="#008755"/>
    </clipPath>
  </defs>
  <g id="Group_619" data-name="Group 619" transform="translate(0 0)">
    <g id="Group_618" data-name="Group 618" transform="translate(0 0)" clip-path="url(#clip-path)">
      <path id="Path_772" data-name="Path 772" d="M13.071,8.816l-.024-.531L8.9,7.7,8.057,9.34A10.636,10.636,0,0,1,5.646,7.489,10.384,10.384,0,0,1,3.779,5.066l1.787-.895L3.779,0,3.293.071A3.768,3.768,0,0,0,1.122,1.154C-.908,3.184-.113,7.16,2.931,10.2a9.125,9.125,0,0,0,6.11,2.931,4.034,4.034,0,0,0,2.937-1.123,4.1,4.1,0,0,0,1.092-3.195m-2,2.291C9.6,12.577,6.288,11.749,3.837,9.3S.555,3.53,2.027,2.06a2.5,2.5,0,0,1,.979-.613l.908,2.12-.706.353a1.284,1.284,0,0,0-.557,1.754A11.71,11.71,0,0,0,4.74,8.392a11.887,11.887,0,0,0,2.706,2.074,1.32,1.32,0,0,0,1.012.1,1.271,1.271,0,0,0,.757-.646l.415-.828,2.154.309a2.666,2.666,0,0,1-.71,1.707" transform="translate(0 0)" fill="#008755"/>
    </g>
  </g>
</svg>
