<svg xmlns="http://www.w3.org/2000/svg" xmlns:xlink="http://www.w3.org/1999/xlink" width="321.484" height="61.868" viewBox="0 0 321.484 61.868">
  <defs>
    <clipPath id="clip-path">
      <rect id="Rectangle_6772" data-name="Rectangle 6772" width="321.484" height="61.868" fill="#008755"/>
    </clipPath>
  </defs>
  <g id="Group_5354" data-name="Group 5354" transform="translate(0 0)">
    <path id="Path_27549" data-name="Path 27549" d="M7.088,27.861l-.012.013H27.861v-.013Z" transform="translate(0 2.247)" fill="#008755"/>
    <path id="Path_27550" data-name="Path 27550" d="M7.088,27.861l-.012.013H27.861v-.013Z" transform="translate(0 2.247)" fill="#008755"/>
    <g id="Group_5353" data-name="Group 5353" transform="translate(0 0)">
      <g id="Group_5352" data-name="Group 5352" clip-path="url(#clip-path)">
        <path id="Path_27551" data-name="Path 27551" d="M0,61.868H152.193V0H0ZM91.976,1.652h22.893C103.32,4.129,94.262,14.165,91.976,25.763Zm3.761,17.1a25.5,25.5,0,0,1,1.792-3.214l14.647,14.571h-5.107l.051-.051ZM93.831,24.2a24.451,24.451,0,0,1,1.194-3.811l9.782,9.718H99.815Zm3.633,5.907h-4.4a25.56,25.56,0,0,1,.368-3.964ZM31.76,1.652h24.2a29.754,29.754,0,0,0-24.2,24.2Zm0,30.107h3.659l-.013.013L31.76,35.406Zm0,5.972,5.983-5.959.013-.013h5l-.012.013L31.76,42.724Zm0,7.317L45.086,31.773l.013-.013h5.017l-.012.013L31.76,50.054ZM1.651,1.652H30.107V30.122H7.648l.013-.013H1.651Zm6.657,30.12.013-.013h5.03l-.012.013L4.547,40.5a25.206,25.206,0,0,1-1.1-3.912ZM3.1,34.593a25.846,25.846,0,0,1-.228-2.82h3.1Zm12.577-2.82.013-.013h5l-.012.013L6.924,45.468a25.418,25.418,0,0,1-1.715-3.315Zm7.355,0,.013-.013h5.018l-.013.013-18,17.913a27.492,27.492,0,0,1-2.211-2.807ZM1.651,60.217V36.028A29.48,29.48,0,0,0,5.717,46.675c.038.051.077.115.115.165A29.733,29.733,0,0,0,25.788,60.217ZM30.107,59a26.1,26.1,0,0,1-4.5-.483l4.5-4.484Zm0-7.292-6.39,6.378a26.547,26.547,0,0,1-3.735-1.3L30.107,46.7Zm0-7.343L18.383,56.05a26.938,26.938,0,0,1-3.151-1.842L30.107,39.383Zm0-7.317L13.872,53.217a25.911,25.911,0,0,1-2.68-2.337L30.107,32.053ZM31.76,52.391,52.429,31.773l.013-.013h5.144l-.012.013L31.76,57.511Zm27.2-19.665a26.736,26.736,0,0,1-1.117,6.25l-18.98,18.9a26.541,26.541,0,0,1-6.211,1.08Zm-2.552,10.01a28.176,28.176,0,0,1-13.8,13.734Zm3.81,17.481H36.079A29.781,29.781,0,0,0,60.216,36.092Zm30.109,0H61.867V31.761H90.325Zm0-34.428a29.759,29.759,0,0,0-24.2-24.137h24.2Zm1.651,34.428V35.94a29.778,29.778,0,0,0,24.214,24.277Zm22.537-30.109L98.481,14.152a24.248,24.248,0,0,1,2.286-2.731l18.764,18.687Zm5.921-1.435-18.51-18.422a24.752,24.752,0,0,1,2.757-2.274l15.753,15.677Zm0-7.343L106.065,7.038a25.714,25.714,0,0,1,3.227-1.791h.012l11.129,11.065Zm0-7.356-9.49-9.426a26.038,26.038,0,0,1,3.824-1.181l5.666,5.589Zm0-7.343-3.7-3.646a25.275,25.275,0,0,1,3.7-.343Zm30.109,53.585H126.353a29.762,29.762,0,0,0,24.189-24.138Zm0-30.109H122.085V1.652h28.456Z" transform="translate(0 0)" fill="#008755"/>
        <path id="Path_27552" data-name="Path 27552" d="M31.14,29.39V29.4h3.646l.013-.013Zm-16.07,0-.013.013h5.005l.012-.013Zm7.355,0-.012.013H27.43l.013-.013ZM7.7,29.39l-.013.013h5.031l.012-.013Zm44.121,0-.013.013h5.145l.012-.013Zm-14.686,0-.013.013h5.005l.012-.013Zm7.343,0-.013.013h5.018l.012-.013Zm-29.409,0-.013.013h5.005l.012-.013Zm7.355,0-.012.013H27.43l.013-.013Z" transform="translate(0.62 2.37)" fill="#008755"/>
        <path id="Path_27553" data-name="Path 27553" d="M163.095,29.908a8.221,8.221,0,0,1-4.705-1.25A5.2,5.2,0,0,1,156.157,25l3.157-.8a3.875,3.875,0,0,0,.743,1.786,2.884,2.884,0,0,0,1.325.924,5.3,5.3,0,0,0,1.713.268,3.568,3.568,0,0,0,2.1-.507,1.524,1.524,0,0,0,.7-1.279,1.283,1.283,0,0,0-.669-1.192,6.961,6.961,0,0,0-2.04-.655l-.922-.148a14.416,14.416,0,0,1-2.77-.819,5.122,5.122,0,0,1-2.009-1.429,3.474,3.474,0,0,1-.76-2.308,3.844,3.844,0,0,1,1.593-3.3,6.94,6.94,0,0,1,4.182-1.161,7.058,7.058,0,0,1,4.079,1.1,4.982,4.982,0,0,1,2.083,2.946l-3.155.953a2.556,2.556,0,0,0-1.042-1.771,3.542,3.542,0,0,0-1.966-.521,3.358,3.358,0,0,0-1.831.417,1.337,1.337,0,0,0-.64,1.19,1.261,1.261,0,0,0,.655,1.162,5.062,5.062,0,0,0,1.757.566l.922.178a18.711,18.711,0,0,1,2.962.774,4.915,4.915,0,0,1,2.1,1.369,3.559,3.559,0,0,1,.774,2.412,4.136,4.136,0,0,1-1.652,3.527,7.265,7.265,0,0,1-4.45,1.236" transform="translate(12.591 1.159)" fill="#008755"/>
        <path id="Path_27554" data-name="Path 27554" d="M178.232,29.908a8.293,8.293,0,0,1-3.87-.893,6.665,6.665,0,0,1-2.725-2.591,7.913,7.913,0,0,1-1-4.078v-.417a7.915,7.915,0,0,1,1-4.078,6.655,6.655,0,0,1,2.725-2.59,8.306,8.306,0,0,1,3.87-.893,8.089,8.089,0,0,1,3.618.745,6.436,6.436,0,0,1,2.426,2.038,6.906,6.906,0,0,1,1.191,2.9l-3.3.685a4.391,4.391,0,0,0-.566-1.683,3.219,3.219,0,0,0-1.265-1.206,4.142,4.142,0,0,0-2.009-.446,4.541,4.541,0,0,0-2.188.521,3.664,3.664,0,0,0-1.518,1.563,5.278,5.278,0,0,0-.55,2.5v.3a5.183,5.183,0,0,0,.55,2.487,3.782,3.782,0,0,0,1.518,1.563,4.441,4.441,0,0,0,2.188.535,3.734,3.734,0,0,0,2.753-.937,4.29,4.29,0,0,0,1.177-2.426l3.3.774a7.769,7.769,0,0,1-1.279,2.828,6.622,6.622,0,0,1-2.426,2.04,7.957,7.957,0,0,1-3.618.759" transform="translate(13.759 1.159)" fill="#008755"/>
        <path id="Path_27555" data-name="Path 27555" d="M187.349,29.917V9.077h3.425v8.068h.506a3.439,3.439,0,0,1,.775-1.013,4.145,4.145,0,0,1,1.413-.833,6.417,6.417,0,0,1,2.219-.327,5.89,5.89,0,0,1,3.006.759,5.28,5.28,0,0,1,2.039,2.129,6.812,6.812,0,0,1,.73,3.245v8.813h-3.425V21.372a3.624,3.624,0,0,0-.879-2.665,3.366,3.366,0,0,0-2.487-.879,3.577,3.577,0,0,0-2.857,1.207,5.1,5.1,0,0,0-1.042,3.437v7.443Z" transform="translate(15.106 0.732)" fill="#008755"/>
        <path id="Path_27556" data-name="Path 27556" d="M204.141,29.464V14.758h3.364v1.7h.507a2.338,2.338,0,0,1,1.1-1.34,3.838,3.838,0,0,1,1.846-.417h1.785v3.038H210.9a3.589,3.589,0,0,0-2.412.788,3.02,3.02,0,0,0-.922,2.427v8.514Z" transform="translate(16.46 1.185)" fill="#008755"/>
        <path id="Path_27557" data-name="Path 27557" d="M219.479,29.908a6.864,6.864,0,0,1-2.8-.551,4.628,4.628,0,0,1-1.98-1.593,4.342,4.342,0,0,1-.729-2.56,4.155,4.155,0,0,1,.729-2.5,4.487,4.487,0,0,1,2.009-1.533,7.7,7.7,0,0,1,2.918-.522h4.258v-.893a2.59,2.59,0,0,0-.714-1.89,3.01,3.01,0,0,0-2.234-.729,3.214,3.214,0,0,0-2.248.7,3.345,3.345,0,0,0-1,1.8l-3.155-1.042a6.082,6.082,0,0,1,1.147-2.114,5.615,5.615,0,0,1,2.1-1.533,7.929,7.929,0,0,1,3.216-.58,6.666,6.666,0,0,1,4.54,1.444,5.254,5.254,0,0,1,1.651,4.183V25.77q0,.893.834.893h1.25V29.49h-2.411a2.757,2.757,0,0,1-1.756-.536,1.75,1.75,0,0,1-.685-1.459v-.059h-.507a5.186,5.186,0,0,1-.625,1.013,3.551,3.551,0,0,1-1.355,1.027,5.8,5.8,0,0,1-2.455.432m.565-2.8a3.97,3.97,0,0,0,2.769-.968,3.334,3.334,0,0,0,1.072-2.6v-.3h-4.049a3.062,3.062,0,0,0-1.786.475,1.6,1.6,0,0,0-.684,1.4,1.733,1.733,0,0,0,.714,1.444,3.142,3.142,0,0,0,1.965.551" transform="translate(17.253 1.159)" fill="#008755"/>
        <path id="Path_27558" data-name="Path 27558" d="M236.139,29.7a5.874,5.874,0,0,1-3.006-.76,5.129,5.129,0,0,1-2.024-2.144,6.926,6.926,0,0,1-.714-3.23V14.753h3.393V23.3a3.566,3.566,0,0,0,.879,2.65,3.387,3.387,0,0,0,2.485.863,3.651,3.651,0,0,0,2.873-1.19A5,5,0,0,0,241.08,22.2V14.753h3.394V29.459h-3.334V27.405h-.507a4.3,4.3,0,0,1-1.413,1.549,5.24,5.24,0,0,1-3.082.745" transform="translate(18.577 1.19)" fill="#008755"/>
        <path id="Path_27559" data-name="Path 27559" d="M248.692,29.459,246.4,14.753h3.394l1.577,12.414h.507l2.234-12.414h5.478l2.232,12.414h.507L263.9,14.753H267.3l-2.292,14.706h-5.686l-2.2-12.414h-.506l-2.233,12.414Z" transform="translate(19.867 1.19)" fill="#008755"/>
        <path id="Path_27560" data-name="Path 27560" d="M275.336,29.908a7.837,7.837,0,0,1-3.885-.938,6.6,6.6,0,0,1-2.62-2.65,8.2,8.2,0,0,1-.939-4v-.357a8.294,8.294,0,0,1,.924-4.019,6.557,6.557,0,0,1,2.589-2.636,7.707,7.707,0,0,1,3.842-.937A7.313,7.313,0,0,1,279,15.3a6.471,6.471,0,0,1,2.5,2.636,8.378,8.378,0,0,1,.893,3.959v1.22H271.348a3.716,3.716,0,0,0,1.221,2.769,4.113,4.113,0,0,0,2.857,1.043,3.583,3.583,0,0,0,2.47-.729,5.019,5.019,0,0,0,1.221-1.652l2.828,1.458a8.95,8.95,0,0,1-1.206,1.712,6.517,6.517,0,0,1-2.1,1.549,7.518,7.518,0,0,1-3.306.641m-3.959-9.379h7.532a3.3,3.3,0,0,0-1.116-2.321,3.855,3.855,0,0,0-6.416,2.321" transform="translate(21.6 1.159)" fill="#008755"/>
        <path id="Path_27561" data-name="Path 27561" d="M284.438,29.479V14.773H287.8v2.053h.507a4.246,4.246,0,0,1,1.4-1.578,5.169,5.169,0,0,1,3.066-.743,5.809,5.809,0,0,1,3.007.773,5.4,5.4,0,0,1,2.039,2.144,6.824,6.824,0,0,1,.729,3.245v8.813h-3.425V20.935a3.628,3.628,0,0,0-.877-2.665,3.367,3.367,0,0,0-2.487-.879A3.58,3.58,0,0,0,288.9,18.6a5.1,5.1,0,0,0-1.041,3.437v7.443Z" transform="translate(22.934 1.17)" fill="#008755"/>
        <path id="Path_27562" data-name="Path 27562" d="M156.7,45.719v-.357a7.751,7.751,0,0,1,.935-3.915,6.6,6.6,0,0,1,2.507-2.521,6.978,6.978,0,0,1,3.5-.889,6.319,6.319,0,0,1,3.694.934,6.1,6.1,0,0,1,1.943,2.121h.356v-2.64H171.3V56.546a2.321,2.321,0,0,1-.563,1.662,2.273,2.273,0,0,1-1.72.593h-9.848V57.2h9.492a.8.8,0,0,0,.919-.889v-6.2h-.356a5.927,5.927,0,0,1-1.083,1.394,5.276,5.276,0,0,1-1.795,1.112,7.406,7.406,0,0,1-2.7.43,7.05,7.05,0,0,1-3.514-.89,6.443,6.443,0,0,1-2.507-2.535,7.88,7.88,0,0,1-.92-3.9m7.357,5.725a5.367,5.367,0,0,0,3.99-1.543,5.76,5.76,0,0,0,1.527-4.241v-.237a5.754,5.754,0,0,0-1.527-4.258,5.954,5.954,0,0,0-7.965,0,5.726,5.726,0,0,0-1.541,4.258v.237a5.732,5.732,0,0,0,1.541,4.241,5.38,5.38,0,0,0,3.976,1.543" transform="translate(12.635 3.067)" fill="#008755"/>
        <path id="Path_27563" data-name="Path 27563" d="M174.979,52.842V38.425H176.7v1.81h.357a2.783,2.783,0,0,1,1.232-1.423,4.757,4.757,0,0,1,2.268-.446h1.691v1.662h-1.9a3.662,3.662,0,0,0-2.611.919,3.777,3.777,0,0,0-.98,2.878v9.018Z" transform="translate(14.109 3.094)" fill="#008755"/>
        <path id="Path_27564" data-name="Path 27564" d="M191.319,53.284a7.657,7.657,0,0,1-3.842-.935,6.5,6.5,0,0,1-2.551-2.61,8.077,8.077,0,0,1-.9-3.9v-.356a8.077,8.077,0,0,1,.9-3.9,6.492,6.492,0,0,1,2.551-2.611,8.37,8.37,0,0,1,7.683,0,6.489,6.489,0,0,1,2.55,2.611,8.077,8.077,0,0,1,.9,3.9v.356a8.077,8.077,0,0,1-.9,3.9,6.493,6.493,0,0,1-2.55,2.61,7.657,7.657,0,0,1-3.842.935m0-1.6a5.208,5.208,0,0,0,4.034-1.617,6.1,6.1,0,0,0,1.483-4.287v-.238a6.1,6.1,0,0,0-1.483-4.286,5.821,5.821,0,0,0-8.054,0,6.058,6.058,0,0,0-1.5,4.286v.238a6.055,6.055,0,0,0,1.5,4.287,5.216,5.216,0,0,0,4.02,1.617" transform="translate(14.838 3.067)" fill="#008755"/>
        <path id="Path_27565" data-name="Path 27565" d="M208.393,53.284a7.715,7.715,0,0,1-3.871-.935,6.547,6.547,0,0,1-2.566-2.626,7.993,7.993,0,0,1-.92-3.886v-.356a7.969,7.969,0,0,1,.92-3.9,6.632,6.632,0,0,1,2.536-2.611,7.249,7.249,0,0,1,3.693-.934,7.367,7.367,0,0,1,3.575.845,6.087,6.087,0,0,1,2.448,2.432,7.608,7.608,0,0,1,.89,3.781v.95H202.816a5.724,5.724,0,0,0,1.647,4.167,5.5,5.5,0,0,0,3.93,1.47,4.778,4.778,0,0,0,3.128-.921,6.081,6.081,0,0,0,1.706-2.254l1.6.712a8.424,8.424,0,0,1-1.232,1.914,6.106,6.106,0,0,1-2.032,1.541,7.236,7.236,0,0,1-3.174.609M202.846,44.5h10.441a4.971,4.971,0,0,0-1.513-3.6,5.152,5.152,0,0,0-3.59-1.261A5.219,5.219,0,0,0,204.6,40.9a5.661,5.661,0,0,0-1.75,3.6" transform="translate(16.21 3.067)" fill="#008755"/>
        <path id="Path_27566" data-name="Path 27566" d="M218.13,52.86V38.443h1.72v2.67h.356a5.414,5.414,0,0,1,1.751-2.062,5.851,5.851,0,0,1,3.53-.9,6.353,6.353,0,0,1,2.877.652,5.034,5.034,0,0,1,2.091,1.973,6.376,6.376,0,0,1,.787,3.308v8.78H229.46V44.2a4.327,4.327,0,0,0-1.185-3.41,4.65,4.65,0,0,0-3.175-1.038,5.053,5.053,0,0,0-3.707,1.469,5.987,5.987,0,0,0-1.485,4.435V52.86Z" transform="translate(17.588 3.076)" fill="#008755"/>
      </g>
    </g>
  </g>
</svg>
