<svg id="Group_632" data-name="Group 632" xmlns="http://www.w3.org/2000/svg" xmlns:xlink="http://www.w3.org/1999/xlink" width="149" height="116.539" viewBox="0 0 149 116.539">
  <defs>
    <clipPath id="clip-path">
      <rect id="Rectangle_1955" data-name="Rectangle 1955" width="149" height="116.539" fill="#d9ede5"/>
    </clipPath>
  </defs>
  <path id="Path_774" data-name="Path 774" d="M7.679,27.862l-.011.012H28.452v-.012Z" transform="translate(0 1.492)" fill="#d9ede5"/>
  <path id="Path_775" data-name="Path 775" d="M7.679,27.862l-.011.012H28.452v-.012Z" transform="translate(0 1.492)" fill="#d9ede5"/>
  <g id="Group_621" data-name="Group 621">
    <g id="Group_620" data-name="Group 620" clip-path="url(#clip-path)">
      <path id="Path_776" data-name="Path 776" d="M.591,60.318H148.969V0H.591ZM90.262,1.611H112.58c-11.258,2.415-20.089,12.2-22.318,23.508Zm3.666,16.67a24.99,24.99,0,0,1,1.746-3.133l14.281,14.206h-4.979l.05-.05ZM92.069,23.6a24.066,24.066,0,0,1,1.164-3.716l9.538,9.475H97.9Zm3.542,5.759H91.327a24.79,24.79,0,0,1,.359-3.864ZM31.555,1.611H55.149A29.008,29.008,0,0,0,31.555,25.205Zm0,29.353h3.566l-.013.013-3.554,3.542Zm0,5.822,5.833-5.809.012-.013h4.88l-.013.013L31.555,41.653Zm0,7.134L44.546,30.976l.013-.013h4.893l-.013.013L31.555,48.8ZM2.2,1.611H29.944V29.367H8.047l.012-.013H2.2Zm6.49,29.366.013-.013h4.9l-.013.013L5.024,39.485a24.462,24.462,0,0,1-1.078-3.814Zm-5.078,2.75a25.2,25.2,0,0,1-.223-2.75H6.412Zm12.261-2.75.013-.013h4.88l-.013.013L7.34,44.328A24.9,24.9,0,0,1,5.669,41.1Zm7.171,0,.013-.013H27.95l-.013.013L10.387,48.44A26.94,26.94,0,0,1,8.232,45.7ZM2.2,58.708V35.125A28.742,28.742,0,0,0,6.164,45.5c.037.05.074.112.111.161A28.992,28.992,0,0,0,25.733,58.708Zm27.743-1.189a25.576,25.576,0,0,1-4.385-.47l4.385-4.372Zm0-7.109-6.23,6.218a25.835,25.835,0,0,1-3.641-1.263l9.871-9.835Zm0-7.159-11.432,11.4a26.249,26.249,0,0,1-3.071-1.8L29.944,38.4Zm0-7.134L14.115,51.883A25.152,25.152,0,0,1,11.5,49.6L29.944,31.249Zm1.611,14.961,20.151-20.1.012-.013h5.016l-.012.013L31.555,56.07ZM58.071,31.906A26.011,26.011,0,0,1,56.981,38l-18.5,18.43a25.876,25.876,0,0,1-6.057,1.052Zm-2.49,9.76A27.47,27.47,0,0,1,42.131,55.054ZM59.3,58.708H35.766A29.037,29.037,0,0,0,59.3,35.187Zm29.354,0H60.908V30.965H88.652Zm0-33.565a29.013,29.013,0,0,0-23.6-23.532h23.6Zm1.61,33.565V35.039a29.032,29.032,0,0,0,23.607,23.669Zm21.972-29.354L96.6,13.8a23.68,23.68,0,0,1,2.229-2.663l18.294,18.219Zm5.771-1.4L99.959,10a24.038,24.038,0,0,1,2.688-2.217L118,23.062Zm0-7.159L104,6.862a25.146,25.146,0,0,1,3.146-1.746h.013L118,15.9Zm0-7.171-9.252-9.19a25.465,25.465,0,0,1,3.729-1.152L118,8.732Zm0-7.159-3.6-3.555a24.627,24.627,0,0,1,3.6-.334Zm29.354,52.242H123.777a29.014,29.014,0,0,0,23.582-23.533Zm0-29.354H119.615V1.611h27.743Z" transform="translate(0.032)" fill="#d9ede5"/>
      <path id="Path_777" data-name="Path 777" d="M31.143,29.39V29.4H34.7l.013-.013Zm-15.667,0-.013.013h4.88l.012-.013Zm7.17,0-.012.013h4.892l.013-.013Zm-14.355,0-.013.013h4.905l.012-.013Zm43.015,0-.013.013H56.31l.012-.013Zm-14.318,0-.013.013h4.88l.012-.013Zm7.159,0-.013.013h4.893l.012-.013Zm-28.672,0-.013.013h4.88l.012-.013Zm7.17,0-.012.013h4.892l.013-.013Z" transform="translate(0.443 1.574)" fill="#d9ede5"/>
      <path id="Path_778" data-name="Path 778" d="M6.764,82.882a8.015,8.015,0,0,1-4.587-1.219A5.07,5.07,0,0,1,0,78.093l3.077-.784A3.778,3.778,0,0,0,3.8,79.05a2.812,2.812,0,0,0,1.292.9,5.167,5.167,0,0,0,1.67.261,3.478,3.478,0,0,0,2.045-.494,1.485,1.485,0,0,0,.683-1.247,1.251,1.251,0,0,0-.652-1.162A6.787,6.787,0,0,0,6.85,76.67l-.9-.144a14.055,14.055,0,0,1-2.7-.8,4.993,4.993,0,0,1-1.959-1.393,3.387,3.387,0,0,1-.741-2.25A3.748,3.748,0,0,1,2.1,68.863a6.766,6.766,0,0,1,4.077-1.132,6.881,6.881,0,0,1,3.977,1.075,4.857,4.857,0,0,1,2.031,2.872l-3.076.929A2.492,2.492,0,0,0,8.1,70.88a3.453,3.453,0,0,0-1.916-.508,3.274,3.274,0,0,0-1.785.407,1.3,1.3,0,0,0-.624,1.16,1.229,1.229,0,0,0,.638,1.133,4.935,4.935,0,0,0,1.713.552l.9.174a18.241,18.241,0,0,1,2.888.754,4.791,4.791,0,0,1,2.047,1.335,3.47,3.47,0,0,1,.754,2.352A4.032,4.032,0,0,1,11.1,81.677a7.083,7.083,0,0,1-4.339,1.205" transform="translate(0 3.627)" fill="#d9ede5"/>
      <path id="Path_779" data-name="Path 779" d="M21.885,82.882a8.085,8.085,0,0,1-3.773-.87,6.5,6.5,0,0,1-2.657-2.526,7.714,7.714,0,0,1-.971-3.976V75.1a7.717,7.717,0,0,1,.971-3.976A6.488,6.488,0,0,1,18.112,68.6a8.1,8.1,0,0,1,3.773-.87,7.886,7.886,0,0,1,3.527.726,6.275,6.275,0,0,1,2.365,1.987,6.733,6.733,0,0,1,1.161,2.831l-3.222.668a4.281,4.281,0,0,0-.552-1.64,3.138,3.138,0,0,0-1.234-1.176,4.038,4.038,0,0,0-1.959-.435,4.427,4.427,0,0,0-2.133.508,3.572,3.572,0,0,0-1.48,1.523,5.146,5.146,0,0,0-.536,2.439v.29a5.053,5.053,0,0,0,.536,2.424,3.687,3.687,0,0,0,1.48,1.523,4.33,4.33,0,0,0,2.133.521,3.64,3.64,0,0,0,2.684-.913A4.182,4.182,0,0,0,25.8,76.642l3.221.754a7.575,7.575,0,0,1-1.247,2.757,6.456,6.456,0,0,1-2.365,1.989,7.758,7.758,0,0,1-3.527.74" transform="translate(0.776 3.627)" fill="#d9ede5"/>
      <path id="Path_780" data-name="Path 780" d="M31.191,82.759V62.441H34.53v7.866h.493a3.353,3.353,0,0,1,.755-.987,4.041,4.041,0,0,1,1.378-.812,6.256,6.256,0,0,1,2.163-.319,5.743,5.743,0,0,1,2.931.74A5.148,5.148,0,0,1,44.238,71a6.64,6.64,0,0,1,.712,3.164v8.592H41.612v-8.33a3.533,3.533,0,0,0-.857-2.6,3.281,3.281,0,0,0-2.424-.857,3.488,3.488,0,0,0-2.786,1.177A4.973,4.973,0,0,0,34.53,75.5v7.257Z" transform="translate(1.67 3.344)" fill="#d9ede5"/>
      <path id="Path_781" data-name="Path 781" d="M47.983,82.458V68.12h3.28v1.654h.494a2.28,2.28,0,0,1,1.075-1.306,3.742,3.742,0,0,1,1.8-.407h1.74v2.962h-1.8a3.5,3.5,0,0,0-2.352.768,2.945,2.945,0,0,0-.9,2.366v8.3Z" transform="translate(2.569 3.644)" fill="#d9ede5"/>
      <path id="Path_782" data-name="Path 782" d="M63.184,82.882a6.692,6.692,0,0,1-2.729-.537,4.512,4.512,0,0,1-1.93-1.553,4.233,4.233,0,0,1-.711-2.5,4.051,4.051,0,0,1,.711-2.438,4.375,4.375,0,0,1,1.959-1.495,7.5,7.5,0,0,1,2.845-.509h4.151v-.87a2.525,2.525,0,0,0-.7-1.843,2.935,2.935,0,0,0-2.178-.711,3.133,3.133,0,0,0-2.191.682,3.261,3.261,0,0,0-.972,1.756l-3.076-1.016a5.929,5.929,0,0,1,1.118-2.061A5.474,5.474,0,0,1,61.529,68.3a7.731,7.731,0,0,1,3.135-.566,6.5,6.5,0,0,1,4.426,1.408,5.122,5.122,0,0,1,1.61,4.078v5.631q0,.871.813.87h1.219v2.757h-2.35a2.688,2.688,0,0,1-1.712-.523A1.706,1.706,0,0,1,68,80.531v-.058h-.494a5.056,5.056,0,0,1-.609.987,3.462,3.462,0,0,1-1.321,1,5.659,5.659,0,0,1-2.394.421m.551-2.729a3.87,3.87,0,0,0,2.7-.944,3.25,3.25,0,0,0,1.045-2.539v-.29H63.532a2.985,2.985,0,0,0-1.742.464,1.555,1.555,0,0,0-.667,1.364,1.69,1.69,0,0,0,.7,1.408,3.063,3.063,0,0,0,1.915.537" transform="translate(3.096 3.627)" fill="#d9ede5"/>
      <path id="Path_783" data-name="Path 783" d="M79.838,82.688a5.727,5.727,0,0,1-2.931-.741,5,5,0,0,1-1.973-2.09,6.752,6.752,0,0,1-.7-3.149V68.117h3.308v8.329A3.477,3.477,0,0,0,78.4,79.03a3.3,3.3,0,0,0,2.423.842,3.559,3.559,0,0,0,2.8-1.16,4.878,4.878,0,0,0,1.029-3.339V68.117h3.309V82.455h-3.25v-2H84.22a4.194,4.194,0,0,1-1.378,1.51,5.108,5.108,0,0,1-3,.726" transform="translate(3.975 3.647)" fill="#d9ede5"/>
      <path id="Path_784" data-name="Path 784" d="M92.477,82.455,90.242,68.117h3.309l1.537,12.1h.494l2.178-12.1h5.34l2.176,12.1h.494l1.538-12.1h3.309l-2.235,14.338H102.84l-2.148-12.1H100.2l-2.177,12.1Z" transform="translate(4.832 3.647)" fill="#d9ede5"/>
      <path id="Path_785" data-name="Path 785" d="M118.993,82.882a7.641,7.641,0,0,1-3.787-.914,6.433,6.433,0,0,1-2.554-2.583,8,8,0,0,1-.916-3.9v-.348a8.086,8.086,0,0,1,.9-3.918,6.393,6.393,0,0,1,2.524-2.57,7.514,7.514,0,0,1,3.745-.913,7.129,7.129,0,0,1,3.657.913A6.309,6.309,0,0,1,125,71.214a8.169,8.169,0,0,1,.87,3.86v1.189H115.1a3.623,3.623,0,0,0,1.191,2.7,4.01,4.01,0,0,0,2.786,1.017,3.494,3.494,0,0,0,2.408-.711,4.893,4.893,0,0,0,1.191-1.611l2.757,1.421a8.723,8.723,0,0,1-1.176,1.669,6.354,6.354,0,0,1-2.045,1.51,7.329,7.329,0,0,1-3.223.625m-3.86-9.144h7.343a3.213,3.213,0,0,0-1.088-2.263,3.758,3.758,0,0,0-6.255,2.263" transform="translate(5.983 3.627)" fill="#d9ede5"/>
      <path id="Path_786" data-name="Path 786" d="M128.28,82.468V68.13h3.28v2h.494a4.14,4.14,0,0,1,1.364-1.538,5.043,5.043,0,0,1,2.99-.725,5.657,5.657,0,0,1,2.931.753,5.253,5.253,0,0,1,1.988,2.09,6.64,6.64,0,0,1,.712,3.164v8.592H138.7v-8.33a3.533,3.533,0,0,0-.857-2.6,3.281,3.281,0,0,0-2.424-.857,3.488,3.488,0,0,0-2.786,1.177,4.973,4.973,0,0,0-1.016,3.351v7.257Z" transform="translate(6.869 3.634)" fill="#d9ede5"/>
      <path id="Path_787" data-name="Path 787" d="M.544,98.891v-.348a7.546,7.546,0,0,1,.912-3.817A6.43,6.43,0,0,1,3.9,92.268a6.8,6.8,0,0,1,3.41-.867,6.161,6.161,0,0,1,3.6.91,5.954,5.954,0,0,1,1.9,2.068h.346V91.806h1.619v17.641a2.263,2.263,0,0,1-.549,1.62,2.214,2.214,0,0,1-1.676.578h-9.6v-1.562H12.2a.779.779,0,0,0,.9-.867v-6.044h-.348a5.773,5.773,0,0,1-1.055,1.359,5.159,5.159,0,0,1-1.751,1.084,7.213,7.213,0,0,1-2.632.419,6.876,6.876,0,0,1-3.426-.868,6.28,6.28,0,0,1-2.443-2.472,7.672,7.672,0,0,1-.9-3.8m7.173,5.582a5.235,5.235,0,0,0,3.891-1.5A5.616,5.616,0,0,0,13.1,98.833V98.6a5.609,5.609,0,0,0-1.489-4.151,5.266,5.266,0,0,0-3.891-1.49,5.274,5.274,0,0,0-3.875,1.49,5.579,5.579,0,0,0-1.5,4.151v.231a5.585,5.585,0,0,0,1.5,4.135,5.243,5.243,0,0,0,3.875,1.5" transform="translate(0.029 4.894)" fill="#d9ede5"/>
      <path id="Path_788" data-name="Path 788" d="M18.821,105.843V91.788H20.5v1.765h.347a2.713,2.713,0,0,1,1.2-1.388,4.64,4.64,0,0,1,2.211-.435h1.649v1.62H24.055a3.568,3.568,0,0,0-2.544.9,3.682,3.682,0,0,0-.956,2.806v8.792Z" transform="translate(1.008 4.912)" fill="#d9ede5"/>
      <path id="Path_789" data-name="Path 789" d="M34.98,106.265a7.466,7.466,0,0,1-3.745-.911,6.333,6.333,0,0,1-2.487-2.544,7.874,7.874,0,0,1-.882-3.8V98.66a7.874,7.874,0,0,1,.882-3.8,6.329,6.329,0,0,1,2.487-2.545,8.16,8.16,0,0,1,7.491,0,6.326,6.326,0,0,1,2.486,2.545,7.874,7.874,0,0,1,.882,3.8v.347a7.874,7.874,0,0,1-.882,3.8,6.33,6.33,0,0,1-2.486,2.544,7.465,7.465,0,0,1-3.745.911m0-1.561a5.077,5.077,0,0,0,3.933-1.576,5.943,5.943,0,0,0,1.445-4.179v-.232a5.946,5.946,0,0,0-1.445-4.178,5.078,5.078,0,0,0-3.933-1.577,5.087,5.087,0,0,0-3.919,1.577,5.906,5.906,0,0,0-1.46,4.178v.232a5.9,5.9,0,0,0,1.46,4.179A5.086,5.086,0,0,0,34.98,104.7" transform="translate(1.492 4.894)" fill="#d9ede5"/>
      <path id="Path_790" data-name="Path 790" d="M52.052,106.266a7.522,7.522,0,0,1-3.774-.911,6.383,6.383,0,0,1-2.5-2.56,7.792,7.792,0,0,1-.9-3.789V98.66a7.769,7.769,0,0,1,.9-3.8,6.466,6.466,0,0,1,2.473-2.545,7.068,7.068,0,0,1,3.6-.91,7.182,7.182,0,0,1,3.485.824A5.935,5.935,0,0,1,57.72,94.6a7.417,7.417,0,0,1,.868,3.686v.926H46.614a5.58,5.58,0,0,0,1.606,4.062,5.363,5.363,0,0,0,3.832,1.433,4.659,4.659,0,0,0,3.05-.9,5.929,5.929,0,0,0,1.664-2.2l1.562.694a8.214,8.214,0,0,1-1.2,1.866,5.953,5.953,0,0,1-1.981,1.5,7.054,7.054,0,0,1-3.094.594m-5.408-8.561H56.823a4.846,4.846,0,0,0-1.475-3.514,5.023,5.023,0,0,0-3.5-1.229,5.088,5.088,0,0,0-3.5,1.229,5.52,5.52,0,0,0-1.706,3.514" transform="translate(2.403 4.894)" fill="#d9ede5"/>
      <path id="Path_791" data-name="Path 791" d="M61.973,105.855V91.8H63.65v2.6H64a5.278,5.278,0,0,1,1.707-2.01,5.7,5.7,0,0,1,3.442-.882,6.194,6.194,0,0,1,2.8.635,4.908,4.908,0,0,1,2.039,1.924,6.216,6.216,0,0,1,.767,3.225v8.56H73.019V97.41a4.218,4.218,0,0,0-1.156-3.325,4.534,4.534,0,0,0-3.1-1.012A4.926,4.926,0,0,0,65.155,94.5a5.837,5.837,0,0,0-1.448,4.324v7.027Z" transform="translate(3.318 4.9)" fill="#d9ede5"/>
    </g>
  </g>
</svg>
