<svg xmlns="http://www.w3.org/2000/svg" width="16.362" height="12.047" viewBox="0 0 16.362 12.047">
  <g id="Check" transform="translate(0.546 0.547)">
    <path id="np_check_2323512_000000" d="M20.193,19.87l-2.017-2.2a.279.279,0,0,0-.394-.017L11.2,23.691,7.682,19.855a.279.279,0,0,0-.394-.017l-2.2,2.017a.279.279,0,0,0-.019.392l3.671,4.087,2.06,2.16a.279.279,0,0,0,.386.017l2.244-1.98,6.748-6.268a.278.278,0,0,0,.016-.392Zm-7.138,6.247-2.037,1.8-1.869-1.96L5.668,22.079l1.791-1.642,3.518,3.836a.28.28,0,0,0,.194.09.287.287,0,0,0,.2-.073l6.581-6.037,1.642,1.789Z" transform="translate(-4.997 -17.58)" fill="#ff6c37" stroke="#ff6130" stroke-width="1"/>
  </g>
</svg>
